<?xml version="1.0" encoding="UTF-8"?>
<svg version="1.1" xmlns="http://www.w3.org/2000/svg" width="16" height="16">
<path d="M0 0 C5.28 0 10.56 0 16 0 C16 5.28 16 10.56 16 16 C10.72 16 5.44 16 0 16 C0 10.72 0 5.44 0 0 Z " fill="#313131" transform="translate(0,0)"/>
<path d="M0 0 C0.9075 0.37125 1.815 0.7425 2.75 1.125 C2.75 4.095 2.75 7.065 2.75 10.125 C-0.55 10.125 -3.85 10.125 -7.25 10.125 C-7.25 7.155 -7.25 4.185 -7.25 1.125 C-3.25 -0.875 -3.25 -0.875 0 0 Z " fill="#787878" transform="translate(10.25,2.875)"/>
<path d="M0 0 C0 0.33 0 0.66 0 1 C-1.98 1.66 -3.96 2.32 -6 3 C-6.33 4.65 -6.66 6.3 -7 8 C-7.33 8 -7.66 8 -8 8 C-8.33 5.69 -8.66 3.38 -9 1 C-5.64919071 -1.10976881 -3.77897651 -1.0497157 0 0 Z " fill="#757575" transform="translate(12,3)"/>
</svg>
